<?xml version="1.0"?>
<svg xmlns="http://www.w3.org/2000/svg" xmlns:xlink="http://www.w3.org/1999/xlink" version="1.1" id="Layer_1" x="0px" y="0px" viewBox="0 0 512 512" style="enable-background:new 0 0 512 512;" xml:space="preserve" width="512px" height="512px" class=""><g><g>
	<g>
		<path d="M131.492,255.988L301,86.479c19.757-19.757,19.757-51.904,0-71.662c-19.756-19.755-51.903-19.758-71.663,0L23.998,220.157    c-19.757,19.757-19.757,51.904,0,71.662l205.34,205.339C238.909,506.73,251.634,512,265.169,512    c13.536,0,26.261-5.27,35.831-14.843c19.757-19.757,19.757-51.904,0-71.662L131.492,255.988z M286.575,482.734    c-5.717,5.718-13.321,8.867-21.406,8.867c-8.085,0-15.688-3.149-21.406-8.867L38.423,277.395    c-11.803-11.804-11.803-31.01,0-42.813L243.762,29.243c5.903-5.903,13.652-8.852,21.406-8.852c7.753,0,15.507,2.951,21.407,8.851    c11.803,11.804,11.803,31.01,0,42.813L109.854,248.776c-3.983,3.984-3.983,10.442,0,14.425l176.721,176.72    C298.378,451.725,298.378,470.931,286.575,482.734z" data-original="#000000" class="active-path" data-old_color="#000000" fill="#FFEBCD"/>
	</g>
</g><g>
	<g>
		<path d="M82.016,219.486c-3.955-4.015-10.412-4.058-14.424-0.105l-14.248,14.043c-4.013,3.954-4.06,10.413-0.105,14.424    c1.996,2.025,4.63,3.04,7.264,3.04c2.586,0,5.173-0.977,7.16-2.934l14.248-14.043C85.923,229.956,85.97,223.498,82.016,219.486z" data-original="#000000" class="active-path" data-old_color="#000000" fill="#FFEBCD"/>
	</g>
</g><g>
	<g>
		<path d="M266.215,37.695c-3.955-4.015-10.414-4.058-14.424-0.105L94.347,192.773c-4.013,3.954-4.059,10.413-0.105,14.424    c1.996,2.025,4.63,3.039,7.264,3.039c2.587,0,5.174-0.977,7.16-2.934L266.11,52.12C270.123,48.165,270.169,41.707,266.215,37.695z    " data-original="#000000" class="active-path" data-old_color="#000000" fill="#FFEBCD"/>
	</g>
</g><g>
	<g>
		<path d="M318.495,255.988L488.002,86.479c19.757-19.757,19.757-51.904,0-71.662c-19.759-19.758-51.906-19.755-71.663,0    L211,220.157c-19.757,19.757-19.757,51.904,0,71.662l205.339,205.339C425.911,506.73,438.635,512,452.171,512    c13.535,0,26.259-5.27,35.832-14.843c19.757-19.757,19.757-51.904,0-71.662L318.495,255.988z M473.578,482.734    c-5.719,5.718-13.322,8.867-21.407,8.867c-8.085,0-15.689-3.149-21.406-8.867L225.425,277.395    c-11.803-11.804-11.803-31.01,0-42.813L430.765,29.243c5.902-5.902,13.653-8.852,21.406-8.852s15.505,2.951,21.407,8.851    c11.803,11.804,11.803,31.01,0,42.813L296.856,248.776c-3.983,3.984-3.983,10.442,0,14.425l176.721,176.72    C485.38,451.725,485.38,470.931,473.578,482.734z" data-original="#000000" class="active-path" data-old_color="#000000" fill="#FFEBCD"/>
	</g>
</g></g> </svg>
