<?xml version="1.0"?>
<svg xmlns="http://www.w3.org/2000/svg" xmlns:xlink="http://www.w3.org/1999/xlink" version="1.1" id="Layer_1" x="0px" y="0px" viewBox="0 0 512 512" style="enable-background:new 0 0 512 512;" xml:space="preserve" width="512px" height="512px" class=""><g><g>
	<g>
		<path d="M487.99,220.156L282.65,14.817c-19.758-19.756-51.904-19.756-71.662,0c-19.757,19.758-19.757,51.905,0,71.663    l169.508,169.508L210.988,425.495c-19.757,19.758-19.757,51.905,0,71.663C220.559,506.73,233.283,512,246.819,512    c13.535,0,26.26-5.27,35.831-14.842L487.99,291.819c9.57-9.571,14.842-22.297,14.842-35.831    C502.831,242.452,497.56,229.727,487.99,220.156z M473.565,277.395L268.225,482.734c-5.718,5.718-13.32,8.867-21.406,8.867    s-15.689-3.149-21.406-8.867c-11.804-11.804-11.804-31.01,0-42.813l176.719-176.72c3.983-3.984,3.983-10.442,0-14.425    L225.412,72.054c-11.803-11.804-11.803-31.01,0-42.813c5.903-5.903,13.653-8.852,21.407-8.852c7.752,0,15.506,2.952,21.406,8.852    l205.339,205.341c5.719,5.718,8.868,13.321,8.868,21.406C482.432,264.074,479.282,271.677,473.565,277.395z" data-original="#000000" class="active-path" data-old_color="#000000" fill="#FFEBCD"/>
	</g>
</g><g>
	<g>
		<path d="M458.645,233.423l-14.248-14.043c-4.013-3.954-10.471-3.908-14.424,0.105c-3.953,4.013-3.908,10.47,0.105,14.424    l14.248,14.043c1.987,1.958,4.574,2.935,7.159,2.935c2.636,0,5.269-1.015,7.265-3.041    C462.704,243.835,462.658,237.377,458.645,233.423z" data-original="#000000" class="active-path" data-old_color="#000000" fill="#FFEBCD"/>
	</g>
</g><g>
	<g>
		<path d="M417.641,192.772L260.197,37.589c-4.012-3.954-10.471-3.908-14.424,0.105c-3.953,4.013-3.908,10.47,0.105,14.424    l157.445,155.183c1.987,1.958,4.574,2.935,7.159,2.935c2.635,0,5.269-1.015,7.264-3.041    C421.699,203.184,421.653,196.726,417.641,192.772z" data-original="#000000" class="active-path" data-old_color="#000000" fill="#FFEBCD"/>
	</g>
</g><g>
	<g>
		<path d="M300.989,220.156L95.649,14.817c-19.758-19.756-51.904-19.756-71.662,0c-19.758,19.758-19.758,51.905,0,71.663    l169.508,169.508L23.987,425.495c-19.758,19.758-19.758,51.905,0,71.663C33.558,506.73,46.282,512,59.818,512    c13.535,0,26.259-5.27,35.831-14.842l205.34-205.339c9.57-9.571,14.842-22.297,14.842-35.831    C315.83,242.452,310.559,229.727,300.989,220.156z M286.562,277.395L81.223,482.734c-5.718,5.718-13.32,8.867-21.406,8.867    c-8.086,0-15.689-3.149-21.406-8.867c-11.804-11.804-11.804-31.01,0-42.813l176.72-176.72c3.983-3.984,3.983-10.442,0-14.425    L38.411,72.054c-11.803-11.804-11.803-31.01,0-42.813c5.903-5.903,13.653-8.852,21.407-8.852c7.751,0,15.505,2.952,21.406,8.852    l205.338,205.34C298.366,246.386,298.366,265.592,286.562,277.395z" data-original="#000000" class="active-path" data-old_color="#000000" fill="#FFEBCD"/>
	</g>
</g></g> </svg>
